<?xml version="1.0" encoding="UTF-8" standalone="no"?>
<!-- Created with Inkscape (http://www.inkscape.org/) -->

<svg
   xmlns:dc="http://purl.org/dc/elements/1.1/"
   xmlns:cc="http://creativecommons.org/ns#"
   xmlns:rdf="http://www.w3.org/1999/02/22-rdf-syntax-ns#"
   xmlns:svg="http://www.w3.org/2000/svg"
   xmlns="http://www.w3.org/2000/svg"
   xmlns:sodipodi="http://sodipodi.sourceforge.net/DTD/sodipodi-0.dtd"
   xmlns:inkscape="http://www.inkscape.org/namespaces/inkscape"
   width="210mm"
   height="297mm"
   viewBox="0 0 210 297"
   version="1.1"
   id="svg8"
   inkscape:version="0.92.1 r15371"
   sodipodi:docname="decision.svg">
  <defs
     id="defs2">
    <clipPath
       id="clipPath4520"
       clipPathUnits="userSpaceOnUse">
      <path
         inkscape:connector-curvature="0"
         id="path4518"
         d="M 0,841.89 H 1190.55 V 0 H 0 Z" />
    </clipPath>
    <clipPath
       id="clipPath4694"
       clipPathUnits="userSpaceOnUse">
      <path
         inkscape:connector-curvature="0"
         id="path4692"
         d="m 162.245,771.328 h 470.001 v 13 H 162.245 Z" />
    </clipPath>
  </defs>
  <sodipodi:namedview
     id="base"
     pagecolor="#ffffff"
     bordercolor="#666666"
     borderopacity="1.0"
     inkscape:pageopacity="0.0"
     inkscape:pageshadow="2"
     inkscape:zoom="1.979899"
     inkscape:cx="-18.611406"
     inkscape:cy="1048.0053"
     inkscape:document-units="mm"
     inkscape:current-layer="g5156"
     showgrid="false"
     inkscape:window-width="1366"
     inkscape:window-height="743"
     inkscape:window-x="0"
     inkscape:window-y="25"
     inkscape:window-maximized="1" />
  <metadata
     id="metadata5">
    <rdf:RDF>
      <cc:Work
         rdf:about="">
        <dc:format>image/svg+xml</dc:format>
        <dc:type
           rdf:resource="http://purl.org/dc/dcmitype/StillImage" />
        <dc:title></dc:title>
      </cc:Work>
    </rdf:RDF>
  </metadata>
  <g
     inkscape:label="Layer 1"
     inkscape:groupmode="layer"
     id="layer1">
    <g
       id="g5156"
       transform="translate(89.654789,61.683114)">
      <g
         transform="matrix(0.35277777,0,0,-0.35277777,-45.051667,-39.222576)"
         id="g4670"
         style="opacity:1;fill:none;stroke:#000000;stroke-width:11.33858299">
        <path
           inkscape:connector-curvature="0"
           id="path4672"
           style="fill:none;stroke:#000000;stroke-width:11.33858299;stroke-linecap:butt;stroke-linejoin:miter;stroke-miterlimit:10;stroke-dasharray:none;stroke-opacity:1"
           d="M -5.7544409,26.600445 C -20.418233,58.088435 -57.830723,71.730568 -89.321431,57.06551 -104.94894,49.787861 -116.17639,36.899237 -121.73371,21.918783 c -5.39123,-15.040999 -5.08566,-32.13162 2.19284,-47.760939 7.15184,-15.357364 19.714992,-26.463913 34.362561,-32.118895"
           sodipodi:nodetypes="cscsc" />
      </g>
      <g
         transform="matrix(0.31980027,-0.14892932,-0.14892932,-0.31980027,-46.308526,-31.757401)"
         id="g4674"
         style="opacity:1;fill:none;stroke:#000000;stroke-width:11.33858299">
        <path
           inkscape:connector-curvature="0"
           id="path4676"
           style="fill:none;stroke:#000000;stroke-width:11.33858299;stroke-linecap:butt;stroke-linejoin:miter;stroke-miterlimit:10;stroke-dasharray:none;stroke-opacity:1"
           d="m 0,0 c -11.359,-11.236 -26.978,-18.175 -44.221,-18.175 -17.795,0 -33.862,7.39 -45.302,19.272 -0.006,0.262 -0.011,0.523 -0.011,0.783" />
      </g>
      <g
         style="fill:#000000"
         id="g37488"
         transform="matrix(0.52916667,0,0,0.52916667,-83.161784,-67.912016)">
        <g
           id="g37471">
          <path
             id="path37465"
             d="m 22,36.5 17,4.8 c 0.8,0.2 1.6,-0.2 1.8,-1 l 2.8,-9.9 c 0.2,-0.8 -0.2,-1.6 -1,-1.8 l -17,-4.8 C 24.8,23.6 24,24 23.8,24.8 L 21,34.7 c -0.3,0.8 0.2,1.6 1,1.8 z"
             inkscape:connector-curvature="0"
             style="fill:#000000" />
          <path
             id="path37467"
             d="m 14.6,60.9 17,4.8 c 0.8,0.2 1.6,-0.2 1.8,-1 l 2.8,-9.9 C 36.4,54 36,53.2 35.2,53 l -17,-4.8 c -0.8,-0.2 -1.6,0.2 -1.8,1 l -2.8,9.9 c -0.2,0.7 0.2,1.5 1,1.8 z"
             inkscape:connector-curvature="0"
             style="fill:#000000" />
          <path
             id="path37469"
             d="M 92.4,58.7 36.5,44.9 36.9,43.6 c 0.1,-0.5 -0.1,-1 -0.6,-1.1 L 23.5,38.9 c -0.5,-0.1 -1,0.1 -1.1,0.6 l -1.8,6.2 c -0.1,0.5 0.1,1 0.6,1.1 L 34,50.5 c 0.5,0.1 1,-0.1 1.1,-0.6 l 0.3,-1.1 v 0 l 54.9,17.4 c 2,0.6 4.2,-0.6 4.8,-2.7 0.5,-2.1 -0.7,-4.2 -2.7,-4.8 z"
             inkscape:connector-curvature="0"
             style="fill:#000000" />
        </g>
        <path
           id="path37473"
           d="M 45.6,67.7 H 8.3 C 6.5,67.7 5,69.2 5,71 v 5.3 H 48.8 V 71 c 0,-1.9 -1.4,-3.3 -3.2,-3.3 z"
           inkscape:connector-curvature="0"
           style="fill:#000000" />
      </g>
    </g>
    <g
       id="g4688"
       transform="matrix(0.35277777,0,0,-0.35277777,-26.36491,286.07177)"
       style="opacity:1;stroke:#000000">
      <g
         id="g4690"
         clip-path="url(#clipPath4694)"
         style="stroke:#000000" />
    </g>
  </g>
</svg>
