<?xml version="1.0" encoding="UTF-8" standalone="no"?>
<svg
   xmlns:dc="http://purl.org/dc/elements/1.1/"
   xmlns:cc="http://creativecommons.org/ns#"
   xmlns:rdf="http://www.w3.org/1999/02/22-rdf-syntax-ns#"
   xmlns:svg="http://www.w3.org/2000/svg"
   xmlns="http://www.w3.org/2000/svg"
   id="svg8"
   version="1.1"
   viewBox="0 0 210 297"
   height="297mm"
   width="210mm">
  <defs
     id="defs2">
    <clipPath
       clipPathUnits="userSpaceOnUse"
       id="clipPath4520">
      <path
         d="M 0,841.89 H 1190.55 V 0 H 0 Z"
         id="path4518" />
    </clipPath>
    <clipPath
       clipPathUnits="userSpaceOnUse"
       id="clipPath4694">
      <path
         d="m 162.245,771.328 h 470.001 v 13 H 162.245 Z"
         id="path4692" />
    </clipPath>
  </defs>
  <metadata
     id="metadata5">
    <rdf:RDF>
      <cc:Work
         rdf:about="">
        <dc:format>image/svg+xml</dc:format>
        <dc:type
           rdf:resource="http://purl.org/dc/dcmitype/StillImage" />
        <dc:title></dc:title>
      </cc:Work>
    </rdf:RDF>
  </metadata>
  <g
     id="layer1">
    <g
       transform="matrix(0.35277777,0,0,-0.35277777,50.838812,168.94013)"
       id="g4578">
      <path
         id="path4580"
         style="fill:none;stroke:#545556;stroke-width:1;stroke-linecap:butt;stroke-linejoin:miter;stroke-miterlimit:10;stroke-dasharray:none;stroke-opacity:1"
         d="m 0,0 c 0,0 -0.554,8.318 0,12.569 0.555,4.251 6.1,5.36 6.1,5.36 h 5.359 5.361 c 0,0 5.545,-1.109 6.099,-5.36 0.555,-4.251 0,-12.569 0,-12.569 z" />
    </g>
    <g
       transform="matrix(0.35277777,0,0,-0.35277777,56.946277,160.02371)"
       id="g4582">
      <path
         id="path4584"
         style="fill:none;stroke:#545556;stroke-width:1;stroke-linecap:butt;stroke-linejoin:miter;stroke-miterlimit:10;stroke-dasharray:none;stroke-opacity:1"
         d="m 0,0 c 0,-3.369 -2.73,-6.1 -6.099,-6.1 -3.369,0 -6.1,2.731 -6.1,6.1 0,3.369 2.731,6.1 6.1,6.1 C -2.73,6.1 0,3.369 0,0 Z" />
    </g>
    <g
       transform="matrix(0.35277777,0,0,-0.35277777,41.405957,167.89196)"
       id="g4586">
      <path
         id="path4588"
         style="fill:none;stroke:#545556;stroke-width:1;stroke-linecap:butt;stroke-linejoin:miter;stroke-miterlimit:10;stroke-dasharray:none;stroke-opacity:1"
         d="m 0,0 c 0,0 -0.554,8.317 0,12.568 0.555,4.252 6.1,5.361 6.1,5.361 h 5.36 5.36 c 0,0 5.545,-1.109 6.099,-5.361 0.555,-4.251 0,-12.568 0,-12.568 z" />
    </g>
    <g
       transform="matrix(0.35277777,0,0,-0.35277777,47.513599,158.97554)"
       id="g4590">
      <path
         id="path4592"
         style="fill:none;stroke:#545556;stroke-width:1;stroke-linecap:butt;stroke-linejoin:miter;stroke-miterlimit:10;stroke-dasharray:none;stroke-opacity:1"
         d="m 0,0 c 0,-3.369 -2.731,-6.1 -6.1,-6.1 -3.368,0 -6.099,2.731 -6.099,6.1 0,3.368 2.731,6.099 6.099,6.099 C -2.731,6.099 0,3.368 0,0 Z" />
    </g>
    <g
       transform="matrix(0.35277777,0,0,-0.35277777,62.216777,167.80856)"
       id="g4594">
      <path
         id="path4596"
         style="fill:none;stroke:#545556;stroke-width:1;stroke-linecap:butt;stroke-linejoin:miter;stroke-miterlimit:10;stroke-dasharray:none;stroke-opacity:1"
         d="m 0,0 c 0,0 -0.555,8.317 0,12.569 0.554,4.251 6.099,5.36 6.099,5.36 h 5.36 5.36 c 0,0 5.545,-1.109 6.1,-5.36 0.555,-4.252 0,-12.569 0,-12.569 z" />
    </g>
    <g
       transform="matrix(0.35277777,0,0,-0.35277777,68.324242,158.89214)"
       id="g4598">
      <path
         id="path4600"
         style="fill:none;stroke:#545556;stroke-width:1;stroke-linecap:butt;stroke-linejoin:miter;stroke-miterlimit:10;stroke-dasharray:none;stroke-opacity:1"
         d="m 0,0 c 0,-3.369 -2.731,-6.1 -6.1,-6.1 -3.368,0 -6.099,2.731 -6.099,6.1 0,3.369 2.731,6.099 6.099,6.099 C -2.731,6.099 0,3.369 0,0 Z" />
    </g>
    <g
       transform="matrix(0.35277777,0,0,-0.35277777,45.239346,148.94821)"
       id="g4602">
      <path
         id="path4604"
         style="fill:none;stroke:#545556;stroke-width:1;stroke-linecap:butt;stroke-linejoin:miter;stroke-miterlimit:10;stroke-dasharray:none;stroke-opacity:1"
         d="m 0,0 c -0.352,0 -0.585,-0.234 -0.585,-0.586 v -15.227 c 0,-0.352 0.233,-0.586 0.585,-0.586 h 2.343 c 0.351,0 0.586,-0.235 0.586,-0.586 v -3.28 l 3.689,3.69 c 0.117,0.117 0.235,0.176 0.41,0.176 h 17.571 c 0.352,0 0.586,0.234 0.586,0.586 V -0.586 C 25.185,-0.234 24.951,0 24.599,0 Z" />
    </g>
    <g
       transform="matrix(0.35277777,0,0,-0.35277777,48.132018,151.42768)"
       id="g4606">
      <path
         id="path4608"
         style="fill:none;stroke:#545556;stroke-width:1;stroke-linecap:butt;stroke-linejoin:miter;stroke-miterlimit:10;stroke-dasharray:none;stroke-opacity:1"
         d="m 0,0 c 0.647,0 1.171,-0.524 1.171,-1.171 0,-0.647 -0.524,-1.172 -1.171,-1.172 -0.647,0 -1.171,0.525 -1.171,1.172 C -1.171,-0.524 -0.647,0 0,0 Z" />
    </g>
    <g
       transform="matrix(0.35277777,0,0,-0.35277777,51.437934,151.42768)"
       id="g4610">
      <path
         id="path4612"
         style="fill:none;stroke:#545556;stroke-width:1;stroke-linecap:butt;stroke-linejoin:miter;stroke-miterlimit:10;stroke-dasharray:none;stroke-opacity:1"
         d="m 0,0 c 0.647,0 1.171,-0.524 1.171,-1.171 0,-0.647 -0.524,-1.172 -1.171,-1.172 -0.647,0 -1.171,0.525 -1.171,1.172 C -1.171,-0.524 -0.647,0 0,0 Z" />
    </g>
    <g
       transform="matrix(0.35277777,0,0,-0.35277777,49.784959,151.42768)"
       id="g4614">
      <path
         id="path4616"
         style="fill:none;stroke:#545556;stroke-width:1;stroke-linecap:butt;stroke-linejoin:miter;stroke-miterlimit:10;stroke-dasharray:none;stroke-opacity:1"
         d="m 0,0 c 0.647,0 1.171,-0.524 1.171,-1.171 0,-0.647 -0.524,-1.172 -1.171,-1.172 -0.647,0 -1.171,0.525 -1.171,1.172 C -1.171,-0.524 -0.647,0 0,0 Z" />
    </g>
    <g
       transform="matrix(0.35277777,0,0,-0.35277777,56.238146,145.37376)"
       id="g4618">
      <path
         id="path4620"
         style="fill:none;stroke:#545556;stroke-width:1;stroke-linecap:butt;stroke-linejoin:miter;stroke-miterlimit:10;stroke-dasharray:none;stroke-opacity:1"
         d="m 0,0 c -0.352,0 -0.586,-0.234 -0.586,-0.585 v -15.228 c 0,-0.352 0.234,-0.586 0.586,-0.586 h 2.343 c 0.351,0 0.585,-0.234 0.585,-0.586 v -3.28 l 3.69,3.69 c 0.117,0.117 0.235,0.176 0.41,0.176 h 17.571 c 0.351,0 0.586,0.234 0.586,0.586 V -0.585 C 25.185,-0.234 24.95,0 24.599,0 Z" />
    </g>
    <g
       transform="matrix(0.35277777,0,0,-0.35277777,59.130818,147.85319)"
       id="g4622">
      <path
         id="path4624"
         style="fill:none;stroke:#545556;stroke-width:1;stroke-linecap:butt;stroke-linejoin:miter;stroke-miterlimit:10;stroke-dasharray:none;stroke-opacity:1"
         d="m 0,0 c 0.646,0 1.171,-0.524 1.171,-1.171 0,-0.647 -0.525,-1.172 -1.171,-1.172 -0.647,0 -1.171,0.525 -1.171,1.172 C -1.171,-0.524 -0.647,0 0,0 Z" />
    </g>
    <g
       transform="matrix(0.35277777,0,0,-0.35277777,62.436557,147.85319)"
       id="g4626">
      <path
         id="path4628"
         style="fill:none;stroke:#545556;stroke-width:1;stroke-linecap:butt;stroke-linejoin:miter;stroke-miterlimit:10;stroke-dasharray:none;stroke-opacity:1"
         d="m 0,0 c 0.647,0 1.171,-0.524 1.171,-1.171 0,-0.647 -0.524,-1.172 -1.171,-1.172 -0.646,0 -1.171,0.525 -1.171,1.172 C -1.171,-0.524 -0.646,0 0,0 Z" />
    </g>
    <g
       transform="matrix(0.35277777,0,0,-0.35277777,60.783617,147.85319)"
       id="g4630">
      <path
         id="path4632"
         style="fill:none;stroke:#545556;stroke-width:1;stroke-linecap:butt;stroke-linejoin:miter;stroke-miterlimit:10;stroke-dasharray:none;stroke-opacity:1"
         d="m 0,0 c 0.647,0 1.171,-0.524 1.171,-1.171 0,-0.647 -0.524,-1.172 -1.171,-1.172 -0.646,0 -1.171,0.525 -1.171,1.172 C -1.171,-0.524 -0.646,0 0,0 Z" />
    </g>
    <g
       transform="matrix(0.35277777,0,0,-0.35277777,66.049954,148.94821)"
       id="g4634">
      <path
         id="path4636"
         style="fill:none;stroke:#545556;stroke-width:1;stroke-linecap:butt;stroke-linejoin:miter;stroke-miterlimit:10;stroke-dasharray:none;stroke-opacity:1"
         d="m 0,0 c -0.351,0 -0.585,-0.234 -0.585,-0.586 v -15.227 c 0,-0.352 0.234,-0.586 0.585,-0.586 h 2.343 c 0.351,0 0.586,-0.235 0.586,-0.586 v -3.28 l 3.69,3.69 c 0.117,0.117 0.234,0.176 0.409,0.176 h 17.571 c 0.352,0 0.586,0.234 0.586,0.586 V -0.586 C 25.185,-0.234 24.951,0 24.599,0 Z" />
    </g>
    <g
       transform="matrix(0.35277777,0,0,-0.35277777,68.942626,151.42768)"
       id="g4638">
      <path
         id="path4640"
         style="fill:none;stroke:#545556;stroke-width:1;stroke-linecap:butt;stroke-linejoin:miter;stroke-miterlimit:10;stroke-dasharray:none;stroke-opacity:1"
         d="m 0,0 c 0.647,0 1.171,-0.524 1.171,-1.171 0,-0.647 -0.524,-1.172 -1.171,-1.172 -0.647,0 -1.171,0.525 -1.171,1.172 C -1.171,-0.524 -0.647,0 0,0 Z" />
    </g>
    <g
       transform="matrix(0.35277777,0,0,-0.35277777,72.248542,151.42768)"
       id="g4642">
      <path
         id="path4644"
         style="fill:none;stroke:#545556;stroke-width:1;stroke-linecap:butt;stroke-linejoin:miter;stroke-miterlimit:10;stroke-dasharray:none;stroke-opacity:1"
         d="m 0,0 c 0.647,0 1.171,-0.524 1.171,-1.171 0,-0.647 -0.524,-1.172 -1.171,-1.172 -0.647,0 -1.171,0.525 -1.171,1.172 C -1.171,-0.524 -0.647,0 0,0 Z" />
    </g>
    <g
       transform="matrix(0.35277777,0,0,-0.35277777,70.595566,151.42768)"
       id="g4646">
      <path
         id="path4648"
         style="fill:none;stroke:#545556;stroke-width:1;stroke-linecap:butt;stroke-linejoin:miter;stroke-miterlimit:10;stroke-dasharray:none;stroke-opacity:1"
         d="m 0,0 c 0.647,0 1.171,-0.524 1.171,-1.171 0,-0.647 -0.524,-1.172 -1.171,-1.172 -0.647,0 -1.171,0.525 -1.171,1.172 C -1.171,-0.524 -0.647,0 0,0 Z" />
    </g>
    <g
       transform="matrix(0.35277777,0,0,-0.35277777,79.680476,159.5929)"
       id="g4670">
      <path
         id="path4672"
         style="fill:none;stroke:#545556;stroke-width:2;stroke-linecap:butt;stroke-linejoin:miter;stroke-miterlimit:10;stroke-dasharray:none;stroke-opacity:1"
         d="m 0,0 c 0,34.735 -28.156,62.896 -62.894,62.896 -17.239,0 -32.858,-6.944 -44.22,-18.178 -11.237,-11.359 -18.175,-26.981 -18.175,-44.222 0,-16.941 6.7,-32.313 17.591,-43.623 -0.006,0.26 -0.011,0.524 -0.011,0.785" />
    </g>
    <g
       transform="matrix(0.35277777,0,0,-0.35277777,73.268281,175.19347)"
       id="g4674">
      <path
         id="path4676"
         style="fill:none;stroke:#545556;stroke-width:2;stroke-linecap:butt;stroke-linejoin:miter;stroke-miterlimit:10;stroke-dasharray:none;stroke-opacity:1"
         d="m 0,0 c -11.359,-11.236 -26.978,-18.175 -44.221,-18.175 -17.795,0 -33.862,7.39 -45.302,19.272 -0.006,0.262 -0.011,0.523 -0.011,0.783" />
    </g>
    <g
       transform="matrix(0.35277777,0,0,-0.35277777,-26.36491,286.07177)"
       id="g4688">
      <g
         clip-path="url(#clipPath4694)"
         id="g4690" />
    </g>
  </g>
</svg>
