<?xml version="1.0" encoding="UTF-8" standalone="no"?>
<svg
   xmlns:dc="http://purl.org/dc/elements/1.1/"
   xmlns:cc="http://creativecommons.org/ns#"
   xmlns:rdf="http://www.w3.org/1999/02/22-rdf-syntax-ns#"
   xmlns:svg="http://www.w3.org/2000/svg"
   xmlns="http://www.w3.org/2000/svg"
   id="svg8"
   version="1.1"
   viewBox="0 0 35.71875 35.71875"
   height="135"
   width="135">
  <defs
     id="defs2">
    <clipPath
       clipPathUnits="userSpaceOnUse"
       id="clipPath4520">
      <path
         d="M 0,841.89 H 1190.55 V 0 H 0 Z"
         id="path4518" />
    </clipPath>
    <clipPath
       clipPathUnits="userSpaceOnUse"
       id="clipPath4694">
      <path
         d="m 162.245,771.328 h 470.001 v 13 H 162.245 Z"
         id="path4692" />
    </clipPath>
  </defs>
  <metadata
     id="metadata5">
    <rdf:RDF>
      <cc:Work
         rdf:about="">
        <dc:format>image/svg+xml</dc:format>
        <dc:type
           rdf:resource="http://purl.org/dc/dcmitype/StillImage" />
        <dc:title></dc:title>
      </cc:Work>
    </rdf:RDF>
  </metadata>
  <g
     transform="translate(64.277232,-1.8558899)"
     id="layer1">
    <g
       transform="translate(89.654789,61.683114)"
       id="g5156">
      <circle
         id="circle10"
         r="17.197916"
         cy="-41.96785"
         cx="-136.07265"
         stroke-miterlimit="10"
         style="fill:none;stroke:#ffffff;stroke-width:1.32291663;stroke-miterlimit:10" />
      <line
         id="line12"
         y2="-49.16452"
         x2="-135.99327"
         y1="-49.16452"
         x1="-132.34203"
         stroke-miterlimit="10"
         style="fill:none;stroke:#ffffff;stroke-width:0.52916664;stroke-miterlimit:10" />
      <path
         id="path14"
         d="m -132.50077,-51.413473 h -11.24479 c -0.74083,0 -1.34937,0.608542 -1.34937,1.349375 v 13.6525 c 0,1.005417 0.8202,1.799167 1.79916,1.799167 h 11.64167 c 1.00542,0 1.79917,-0.820209 1.79917,-1.799167 v -8.122708 -5.900209 c 0,-0.582083 -0.47625,-1.031875 -1.05834,-1.031875 z"
         stroke-miterlimit="10"
         style="fill:none;stroke:#ffffff;stroke-width:0.52916664;stroke-miterlimit:10" />
      <path
         id="path16"
         d="m -129.56389,-48.159098 h -11.48292 c -0.60854,0 -1.11125,0.502708 -1.11125,1.11125 v 14.578542 c 0,0.608541 0.50271,1.11125 1.11125,1.11125 h 12.62063 c 0.84666,0 1.53458,-0.687917 1.53458,-1.534584 v -8.387291 -6.19125 c 0,-0.423334 -0.34396,-0.740834 -0.74083,-0.740834 z"
         stroke-miterlimit="10"
         style="fill:#ffffff;stroke:#ffffff;stroke-width:0.52916664;stroke-miterlimit:10" />
    </g>
    <g
       style="opacity:1;stroke:#000000"
       transform="matrix(0.35277777,0,0,-0.35277777,-26.36491,286.07177)"
       id="g4688">
      <g
         style="stroke:#000000"
         clip-path="url(#clipPath4694)"
         id="g4690" />
    </g>
  </g>
</svg>
